# xmcd
#
# Track frame offsets:
#	182
#	23837
#	37747
#	50087
#	66577
#	81685
#	96122
#	110972
#	135042
#	154172
#
# Disc length: 2262 seconds
#
# Revision: 2
# Processed by: cddbd v1.4PL0 Copyright (c) Steve Scherf et al.
# Submitted via: audiograbber 1.80
#
DISCID=8708d40a
DTITLE=White, Tony Joe - Roosevelt and Ira Lee
DYEAR=1900
DGENRE=
TTITLE0=Elements And Things
TTITLE1=Roosevelt And Ira Lee (Night Of The Mossacin)
TTITLE2=Woodpecker
TTITLE3=Rainy Night In Georgia
TTITLE4=For Le Ann
TTITLE5=Old man Willis
TTITLE6=Woman With Soul
TTITLE7=I Want You
TTITLE8=I Thought I Knew You Well
TTITLE9=The Migrant
EXTD=
EXTT0=
EXTT1=
EXTT2=
EXTT3=
EXTT4=
EXTT5=
EXTT6=
EXTT7=
EXTT8=
EXTT9=
PLAYORDER=
